<mxfile host="app.diagrams.net" agent="Mozilla/5.0 (Windows NT 10.0; Win64; x64) AppleWebKit/537.36 (KHTML, like Gecko) Chrome/131.0.0.0 Safari/537.36" version="24.9.3">
  <diagram name="Страница — 1" id="c8MQagowN81k3dfMitHR">
    <mxGraphModel dx="1553" dy="4176" grid="0" gridSize="10" guides="1" tooltips="1" connect="1" arrows="1" fold="1" page="1" pageScale="1" pageWidth="2339" pageHeight="3300" math="0" shadow="0">
      <root>
        <mxCell id="0" />
        <mxCell id="1" parent="0" />
        <mxCell id="_60M-hrK0tJfBThX2oCK-1" value="Person" style="swimlane;fontStyle=1;align=center;verticalAlign=top;childLayout=stackLayout;horizontal=1;startSize=26;horizontalStack=0;resizeParent=1;resizeParentMax=0;resizeLast=0;collapsible=1;marginBottom=0;whiteSpace=wrap;html=1;fontSize=16;" vertex="1" parent="1">
          <mxGeometry x="419" y="-1551" width="250" height="424" as="geometry" />
        </mxCell>
        <mxCell id="_60M-hrK0tJfBThX2oCK-2" value="- id: Integer?" style="text;strokeColor=none;fillColor=none;align=left;verticalAlign=top;spacingLeft=4;spacingRight=4;overflow=hidden;rotatable=0;points=[[0,0.5],[1,0.5]];portConstraint=eastwest;whiteSpace=wrap;html=1;fontSize=16;" vertex="1" parent="_60M-hrK0tJfBThX2oCK-1">
          <mxGeometry y="26" width="250" height="26" as="geometry" />
        </mxCell>
        <mxCell id="_60M-hrK0tJfBThX2oCK-3" value="- git: String?" style="text;strokeColor=none;fillColor=none;align=left;verticalAlign=top;spacingLeft=4;spacingRight=4;overflow=hidden;rotatable=0;points=[[0,0.5],[1,0.5]];portConstraint=eastwest;whiteSpace=wrap;html=1;fontSize=16;" vertex="1" parent="_60M-hrK0tJfBThX2oCK-1">
          <mxGeometry y="52" width="250" height="26" as="geometry" />
        </mxCell>
        <mxCell id="_60M-hrK0tJfBThX2oCK-4" value="" style="line;strokeWidth=1;fillColor=none;align=left;verticalAlign=middle;spacingTop=-1;spacingLeft=3;spacingRight=3;rotatable=0;labelPosition=right;points=[];portConstraint=eastwest;strokeColor=inherit;" vertex="1" parent="_60M-hrK0tJfBThX2oCK-1">
          <mxGeometry y="78" width="250" height="8" as="geometry" />
        </mxCell>
        <mxCell id="_60M-hrK0tJfBThX2oCK-5" value="+ initialize(id: nil, git: nil)" style="text;strokeColor=none;fillColor=none;align=left;verticalAlign=top;spacingLeft=4;spacingRight=4;overflow=hidden;rotatable=0;points=[[0,0.5],[1,0.5]];portConstraint=eastwest;whiteSpace=wrap;html=1;fontSize=16;" vertex="1" parent="_60M-hrK0tJfBThX2oCK-1">
          <mxGeometry y="86" width="250" height="26" as="geometry" />
        </mxCell>
        <mxCell id="_60M-hrK0tJfBThX2oCK-6" value="+ id: attr_reader" style="text;strokeColor=none;fillColor=none;align=left;verticalAlign=top;spacingLeft=4;spacingRight=4;overflow=hidden;rotatable=0;points=[[0,0.5],[1,0.5]];portConstraint=eastwest;whiteSpace=wrap;html=1;fontSize=16;" vertex="1" parent="_60M-hrK0tJfBThX2oCK-1">
          <mxGeometry y="112" width="250" height="26" as="geometry" />
        </mxCell>
        <mxCell id="_60M-hrK0tJfBThX2oCK-7" value="+ git: attr_reader" style="text;strokeColor=none;fillColor=none;align=left;verticalAlign=top;spacingLeft=4;spacingRight=4;overflow=hidden;rotatable=0;points=[[0,0.5],[1,0.5]];portConstraint=eastwest;whiteSpace=wrap;html=1;fontSize=16;" vertex="1" parent="_60M-hrK0tJfBThX2oCK-1">
          <mxGeometry y="138" width="250" height="26" as="geometry" />
        </mxCell>
        <mxCell id="_60M-hrK0tJfBThX2oCK-8" value="&lt;u&gt;+ is_valid_name?(name)&lt;/u&gt;" style="text;strokeColor=none;fillColor=none;align=left;verticalAlign=top;spacingLeft=4;spacingRight=4;overflow=hidden;rotatable=0;points=[[0,0.5],[1,0.5]];portConstraint=eastwest;whiteSpace=wrap;html=1;fontSize=16;" vertex="1" parent="_60M-hrK0tJfBThX2oCK-1">
          <mxGeometry y="164" width="250" height="26" as="geometry" />
        </mxCell>
        <mxCell id="_60M-hrK0tJfBThX2oCK-9" value="&lt;u&gt;+ is_valid_id?(id)&lt;/u&gt;" style="text;strokeColor=none;fillColor=none;align=left;verticalAlign=top;spacingLeft=4;spacingRight=4;overflow=hidden;rotatable=0;points=[[0,0.5],[1,0.5]];portConstraint=eastwest;whiteSpace=wrap;html=1;fontSize=16;" vertex="1" parent="_60M-hrK0tJfBThX2oCK-1">
          <mxGeometry y="190" width="250" height="26" as="geometry" />
        </mxCell>
        <mxCell id="_60M-hrK0tJfBThX2oCK-10" value="&lt;u&gt;+ is_valid_phone_num?(phone_num)&lt;/u&gt;" style="text;strokeColor=none;fillColor=none;align=left;verticalAlign=top;spacingLeft=4;spacingRight=4;overflow=hidden;rotatable=0;points=[[0,0.5],[1,0.5]];portConstraint=eastwest;whiteSpace=wrap;html=1;fontSize=16;" vertex="1" parent="_60M-hrK0tJfBThX2oCK-1">
          <mxGeometry y="216" width="250" height="26" as="geometry" />
        </mxCell>
        <mxCell id="_60M-hrK0tJfBThX2oCK-11" value="&lt;u&gt;+ is_valid_telegram?(telegram)&lt;/u&gt;" style="text;strokeColor=none;fillColor=none;align=left;verticalAlign=top;spacingLeft=4;spacingRight=4;overflow=hidden;rotatable=0;points=[[0,0.5],[1,0.5]];portConstraint=eastwest;whiteSpace=wrap;html=1;fontSize=16;" vertex="1" parent="_60M-hrK0tJfBThX2oCK-1">
          <mxGeometry y="242" width="250" height="26" as="geometry" />
        </mxCell>
        <mxCell id="_60M-hrK0tJfBThX2oCK-12" value="&lt;u&gt;+ is_valid_email?(email)&lt;/u&gt;" style="text;strokeColor=none;fillColor=none;align=left;verticalAlign=top;spacingLeft=4;spacingRight=4;overflow=hidden;rotatable=0;points=[[0,0.5],[1,0.5]];portConstraint=eastwest;whiteSpace=wrap;html=1;fontSize=16;" vertex="1" parent="_60M-hrK0tJfBThX2oCK-1">
          <mxGeometry y="268" width="250" height="26" as="geometry" />
        </mxCell>
        <mxCell id="_60M-hrK0tJfBThX2oCK-13" value="&lt;u&gt;+ is_valid_git?(git)&lt;/u&gt;" style="text;strokeColor=none;fillColor=none;align=left;verticalAlign=top;spacingLeft=4;spacingRight=4;overflow=hidden;rotatable=0;points=[[0,0.5],[1,0.5]];portConstraint=eastwest;whiteSpace=wrap;html=1;fontSize=16;" vertex="1" parent="_60M-hrK0tJfBThX2oCK-1">
          <mxGeometry y="294" width="250" height="26" as="geometry" />
        </mxCell>
        <mxCell id="_60M-hrK0tJfBThX2oCK-14" value="&lt;u&gt;+ is_valid_date_of_birth?(date_of_bitrh)&lt;/u&gt;" style="text;strokeColor=none;fillColor=none;align=left;verticalAlign=top;spacingLeft=4;spacingRight=4;overflow=hidden;rotatable=0;points=[[0,0.5],[1,0.5]];portConstraint=eastwest;whiteSpace=wrap;html=1;fontSize=16;" vertex="1" parent="_60M-hrK0tJfBThX2oCK-1">
          <mxGeometry y="320" width="250" height="26" as="geometry" />
        </mxCell>
        <mxCell id="_60M-hrK0tJfBThX2oCK-15" value="+ validate()" style="text;strokeColor=none;fillColor=none;align=left;verticalAlign=top;spacingLeft=4;spacingRight=4;overflow=hidden;rotatable=0;points=[[0,0.5],[1,0.5]];portConstraint=eastwest;whiteSpace=wrap;html=1;fontSize=16;" vertex="1" parent="_60M-hrK0tJfBThX2oCK-1">
          <mxGeometry y="346" width="250" height="26" as="geometry" />
        </mxCell>
        <mxCell id="_60M-hrK0tJfBThX2oCK-16" value="+ initials()" style="text;strokeColor=none;fillColor=none;align=left;verticalAlign=top;spacingLeft=4;spacingRight=4;overflow=hidden;rotatable=0;points=[[0,0.5],[1,0.5]];portConstraint=eastwest;whiteSpace=wrap;html=1;fontSize=16;" vertex="1" parent="_60M-hrK0tJfBThX2oCK-1">
          <mxGeometry y="372" width="250" height="26" as="geometry" />
        </mxCell>
        <mxCell id="_60M-hrK0tJfBThX2oCK-17" value="+ contact()" style="text;strokeColor=none;fillColor=none;align=left;verticalAlign=top;spacingLeft=4;spacingRight=4;overflow=hidden;rotatable=0;points=[[0,0.5],[1,0.5]];portConstraint=eastwest;whiteSpace=wrap;html=1;fontSize=16;" vertex="1" parent="_60M-hrK0tJfBThX2oCK-1">
          <mxGeometry y="398" width="250" height="26" as="geometry" />
        </mxCell>
        <mxCell id="_60M-hrK0tJfBThX2oCK-18" value="StudentShort" style="swimlane;fontStyle=1;align=center;verticalAlign=top;childLayout=stackLayout;horizontal=1;startSize=26;horizontalStack=0;resizeParent=1;resizeParentMax=0;resizeLast=0;collapsible=1;marginBottom=0;whiteSpace=wrap;html=1;fontSize=16;" vertex="1" parent="1">
          <mxGeometry x="39" y="-1551" width="330" height="242" as="geometry" />
        </mxCell>
        <mxCell id="_60M-hrK0tJfBThX2oCK-19" value="- initials: String" style="text;strokeColor=none;fillColor=none;align=left;verticalAlign=top;spacingLeft=4;spacingRight=4;overflow=hidden;rotatable=0;points=[[0,0.5],[1,0.5]];portConstraint=eastwest;whiteSpace=wrap;html=1;fontSize=16;" vertex="1" parent="_60M-hrK0tJfBThX2oCK-18">
          <mxGeometry y="26" width="330" height="26" as="geometry" />
        </mxCell>
        <mxCell id="_60M-hrK0tJfBThX2oCK-20" value="- contact: String?" style="text;strokeColor=none;fillColor=none;align=left;verticalAlign=top;spacingLeft=4;spacingRight=4;overflow=hidden;rotatable=0;points=[[0,0.5],[1,0.5]];portConstraint=eastwest;whiteSpace=wrap;html=1;fontSize=16;" vertex="1" parent="_60M-hrK0tJfBThX2oCK-18">
          <mxGeometry y="52" width="330" height="26" as="geometry" />
        </mxCell>
        <mxCell id="_60M-hrK0tJfBThX2oCK-21" value="" style="line;strokeWidth=1;fillColor=none;align=left;verticalAlign=middle;spacingTop=-1;spacingLeft=3;spacingRight=3;rotatable=0;labelPosition=right;points=[];portConstraint=eastwest;strokeColor=inherit;" vertex="1" parent="_60M-hrK0tJfBThX2oCK-18">
          <mxGeometry y="78" width="330" height="8" as="geometry" />
        </mxCell>
        <mxCell id="_60M-hrK0tJfBThX2oCK-22" value="+ initialize(initials:, id: nil, git: nil, contact: nil)" style="text;strokeColor=none;fillColor=none;align=left;verticalAlign=top;spacingLeft=4;spacingRight=4;overflow=hidden;rotatable=0;points=[[0,0.5],[1,0.5]];portConstraint=eastwest;whiteSpace=wrap;html=1;fontSize=16;" vertex="1" parent="_60M-hrK0tJfBThX2oCK-18">
          <mxGeometry y="86" width="330" height="26" as="geometry" />
        </mxCell>
        <mxCell id="_60M-hrK0tJfBThX2oCK-23" value="- new()" style="text;strokeColor=none;fillColor=none;align=left;verticalAlign=top;spacingLeft=4;spacingRight=4;overflow=hidden;rotatable=0;points=[[0,0.5],[1,0.5]];portConstraint=eastwest;whiteSpace=wrap;html=1;fontSize=16;" vertex="1" parent="_60M-hrK0tJfBThX2oCK-18">
          <mxGeometry y="112" width="330" height="26" as="geometry" />
        </mxCell>
        <mxCell id="_60M-hrK0tJfBThX2oCK-24" value="&lt;u&gt;+ from_student(student)&lt;/u&gt;" style="text;strokeColor=none;fillColor=none;align=left;verticalAlign=top;spacingLeft=4;spacingRight=4;overflow=hidden;rotatable=0;points=[[0,0.5],[1,0.5]];portConstraint=eastwest;whiteSpace=wrap;html=1;fontSize=16;" vertex="1" parent="_60M-hrK0tJfBThX2oCK-18">
          <mxGeometry y="138" width="330" height="26" as="geometry" />
        </mxCell>
        <mxCell id="_60M-hrK0tJfBThX2oCK-25" value="&lt;u&gt;+ from_string(id:, string:)&lt;/u&gt;" style="text;strokeColor=none;fillColor=none;align=left;verticalAlign=top;spacingLeft=4;spacingRight=4;overflow=hidden;rotatable=0;points=[[0,0.5],[1,0.5]];portConstraint=eastwest;whiteSpace=wrap;html=1;fontSize=16;" vertex="1" parent="_60M-hrK0tJfBThX2oCK-18">
          <mxGeometry y="164" width="330" height="26" as="geometry" />
        </mxCell>
        <mxCell id="_60M-hrK0tJfBThX2oCK-26" value="&lt;u&gt;- parse_into_string(string)&lt;/u&gt;" style="text;strokeColor=none;fillColor=none;align=left;verticalAlign=top;spacingLeft=4;spacingRight=4;overflow=hidden;rotatable=0;points=[[0,0.5],[1,0.5]];portConstraint=eastwest;whiteSpace=wrap;html=1;fontSize=16;" vertex="1" parent="_60M-hrK0tJfBThX2oCK-18">
          <mxGeometry y="190" width="330" height="26" as="geometry" />
        </mxCell>
        <mxCell id="_60M-hrK0tJfBThX2oCK-27" value="+ to_s" style="text;strokeColor=none;fillColor=none;align=left;verticalAlign=top;spacingLeft=4;spacingRight=4;overflow=hidden;rotatable=0;points=[[0,0.5],[1,0.5]];portConstraint=eastwest;whiteSpace=wrap;html=1;fontSize=16;" vertex="1" parent="_60M-hrK0tJfBThX2oCK-18">
          <mxGeometry y="216" width="330" height="26" as="geometry" />
        </mxCell>
        <mxCell id="_60M-hrK0tJfBThX2oCK-28" value="" style="endArrow=block;html=1;rounded=0;exitX=1;exitY=0.5;exitDx=0;exitDy=0;entryX=0;entryY=0.5;entryDx=0;entryDy=0;endFill=0;endSize=12;" edge="1" parent="1" source="_60M-hrK0tJfBThX2oCK-23" target="_60M-hrK0tJfBThX2oCK-6">
          <mxGeometry width="50" height="50" relative="1" as="geometry">
            <mxPoint x="529" y="-1411" as="sourcePoint" />
            <mxPoint x="579" y="-1461" as="targetPoint" />
          </mxGeometry>
        </mxCell>
        <mxCell id="_60M-hrK0tJfBThX2oCK-29" value="Student" style="swimlane;fontStyle=1;align=center;verticalAlign=top;childLayout=stackLayout;horizontal=1;startSize=26;horizontalStack=0;resizeParent=1;resizeParentMax=0;resizeLast=0;collapsible=1;marginBottom=0;whiteSpace=wrap;html=1;fontSize=16;" vertex="1" parent="1">
          <mxGeometry x="709" y="-1551" width="665" height="710" as="geometry" />
        </mxCell>
        <mxCell id="_60M-hrK0tJfBThX2oCK-30" value="- name: String" style="text;strokeColor=none;fillColor=none;align=left;verticalAlign=top;spacingLeft=4;spacingRight=4;overflow=hidden;rotatable=0;points=[[0,0.5],[1,0.5]];portConstraint=eastwest;whiteSpace=wrap;html=1;fontSize=16;" vertex="1" parent="_60M-hrK0tJfBThX2oCK-29">
          <mxGeometry y="26" width="665" height="26" as="geometry" />
        </mxCell>
        <mxCell id="_60M-hrK0tJfBThX2oCK-31" value="- surname: String" style="text;strokeColor=none;fillColor=none;align=left;verticalAlign=top;spacingLeft=4;spacingRight=4;overflow=hidden;rotatable=0;points=[[0,0.5],[1,0.5]];portConstraint=eastwest;whiteSpace=wrap;html=1;fontSize=16;" vertex="1" parent="_60M-hrK0tJfBThX2oCK-29">
          <mxGeometry y="52" width="665" height="26" as="geometry" />
        </mxCell>
        <mxCell id="_60M-hrK0tJfBThX2oCK-32" value="- patronymic: String" style="text;strokeColor=none;fillColor=none;align=left;verticalAlign=top;spacingLeft=4;spacingRight=4;overflow=hidden;rotatable=0;points=[[0,0.5],[1,0.5]];portConstraint=eastwest;whiteSpace=wrap;html=1;fontSize=16;" vertex="1" parent="_60M-hrK0tJfBThX2oCK-29">
          <mxGeometry y="78" width="665" height="26" as="geometry" />
        </mxCell>
        <mxCell id="_60M-hrK0tJfBThX2oCK-33" value="- phone_num: String?" style="text;strokeColor=none;fillColor=none;align=left;verticalAlign=top;spacingLeft=4;spacingRight=4;overflow=hidden;rotatable=0;points=[[0,0.5],[1,0.5]];portConstraint=eastwest;whiteSpace=wrap;html=1;fontSize=16;" vertex="1" parent="_60M-hrK0tJfBThX2oCK-29">
          <mxGeometry y="104" width="665" height="26" as="geometry" />
        </mxCell>
        <mxCell id="_60M-hrK0tJfBThX2oCK-34" value="- telegram: String?" style="text;strokeColor=none;fillColor=none;align=left;verticalAlign=top;spacingLeft=4;spacingRight=4;overflow=hidden;rotatable=0;points=[[0,0.5],[1,0.5]];portConstraint=eastwest;whiteSpace=wrap;html=1;fontSize=16;" vertex="1" parent="_60M-hrK0tJfBThX2oCK-29">
          <mxGeometry y="130" width="665" height="26" as="geometry" />
        </mxCell>
        <mxCell id="_60M-hrK0tJfBThX2oCK-35" value="- email: String?" style="text;strokeColor=none;fillColor=none;align=left;verticalAlign=top;spacingLeft=4;spacingRight=4;overflow=hidden;rotatable=0;points=[[0,0.5],[1,0.5]];portConstraint=eastwest;whiteSpace=wrap;html=1;fontSize=16;" vertex="1" parent="_60M-hrK0tJfBThX2oCK-29">
          <mxGeometry y="156" width="665" height="26" as="geometry" />
        </mxCell>
        <mxCell id="_60M-hrK0tJfBThX2oCK-36" value="- date_of_birth: String?" style="text;strokeColor=none;fillColor=none;align=left;verticalAlign=top;spacingLeft=4;spacingRight=4;overflow=hidden;rotatable=0;points=[[0,0.5],[1,0.5]];portConstraint=eastwest;whiteSpace=wrap;html=1;fontSize=16;" vertex="1" parent="_60M-hrK0tJfBThX2oCK-29">
          <mxGeometry y="182" width="665" height="26" as="geometry" />
        </mxCell>
        <mxCell id="_60M-hrK0tJfBThX2oCK-37" value="" style="line;strokeWidth=1;fillColor=none;align=left;verticalAlign=middle;spacingTop=-1;spacingLeft=3;spacingRight=3;rotatable=0;labelPosition=right;points=[];portConstraint=eastwest;strokeColor=inherit;" vertex="1" parent="_60M-hrK0tJfBThX2oCK-29">
          <mxGeometry y="208" width="665" height="8" as="geometry" />
        </mxCell>
        <mxCell id="_60M-hrK0tJfBThX2oCK-38" value="+ initialize(surname:, name:, patronymic:, id:nil, phone_num:nil, telegram:nil, email:nil, git:nil)" style="text;strokeColor=none;fillColor=none;align=left;verticalAlign=top;spacingLeft=4;spacingRight=4;overflow=hidden;rotatable=0;points=[[0,0.5],[1,0.5]];portConstraint=eastwest;whiteSpace=wrap;html=1;fontSize=16;" vertex="1" parent="_60M-hrK0tJfBThX2oCK-29">
          <mxGeometry y="216" width="665" height="26" as="geometry" />
        </mxCell>
        <mxCell id="_60M-hrK0tJfBThX2oCK-39" value="+ name=(name)" style="text;strokeColor=none;fillColor=none;align=left;verticalAlign=top;spacingLeft=4;spacingRight=4;overflow=hidden;rotatable=0;points=[[0,0.5],[1,0.5]];portConstraint=eastwest;whiteSpace=wrap;html=1;fontSize=16;" vertex="1" parent="_60M-hrK0tJfBThX2oCK-29">
          <mxGeometry y="242" width="665" height="26" as="geometry" />
        </mxCell>
        <mxCell id="_60M-hrK0tJfBThX2oCK-40" value="+ surname=(surname)" style="text;strokeColor=none;fillColor=none;align=left;verticalAlign=top;spacingLeft=4;spacingRight=4;overflow=hidden;rotatable=0;points=[[0,0.5],[1,0.5]];portConstraint=eastwest;whiteSpace=wrap;html=1;fontSize=16;" vertex="1" parent="_60M-hrK0tJfBThX2oCK-29">
          <mxGeometry y="268" width="665" height="26" as="geometry" />
        </mxCell>
        <mxCell id="_60M-hrK0tJfBThX2oCK-41" value="+ patronymic=(patronymic)" style="text;strokeColor=none;fillColor=none;align=left;verticalAlign=top;spacingLeft=4;spacingRight=4;overflow=hidden;rotatable=0;points=[[0,0.5],[1,0.5]];portConstraint=eastwest;whiteSpace=wrap;html=1;fontSize=16;" vertex="1" parent="_60M-hrK0tJfBThX2oCK-29">
          <mxGeometry y="294" width="665" height="26" as="geometry" />
        </mxCell>
        <mxCell id="_60M-hrK0tJfBThX2oCK-42" value="+ id=(id)" style="text;strokeColor=none;fillColor=none;align=left;verticalAlign=top;spacingLeft=4;spacingRight=4;overflow=hidden;rotatable=0;points=[[0,0.5],[1,0.5]];portConstraint=eastwest;whiteSpace=wrap;html=1;fontSize=16;" vertex="1" parent="_60M-hrK0tJfBThX2oCK-29">
          <mxGeometry y="320" width="665" height="26" as="geometry" />
        </mxCell>
        <mxCell id="_60M-hrK0tJfBThX2oCK-43" value="+ git=(git)" style="text;strokeColor=none;fillColor=none;align=left;verticalAlign=top;spacingLeft=4;spacingRight=4;overflow=hidden;rotatable=0;points=[[0,0.5],[1,0.5]];portConstraint=eastwest;whiteSpace=wrap;html=1;fontSize=16;" vertex="1" parent="_60M-hrK0tJfBThX2oCK-29">
          <mxGeometry y="346" width="665" height="26" as="geometry" />
        </mxCell>
        <mxCell id="_60M-hrK0tJfBThX2oCK-44" value="+ set_contacts(phone_num:nil, telegram:nil, email:nil)" style="text;strokeColor=none;fillColor=none;align=left;verticalAlign=top;spacingLeft=4;spacingRight=4;overflow=hidden;rotatable=0;points=[[0,0.5],[1,0.5]];portConstraint=eastwest;whiteSpace=wrap;html=1;fontSize=16;" vertex="1" parent="_60M-hrK0tJfBThX2oCK-29">
          <mxGeometry y="372" width="665" height="26" as="geometry" />
        </mxCell>
        <mxCell id="_60M-hrK0tJfBThX2oCK-45" value="+ date_of_birth=(date_of_birth)" style="text;strokeColor=none;fillColor=none;align=left;verticalAlign=top;spacingLeft=4;spacingRight=4;overflow=hidden;rotatable=0;points=[[0,0.5],[1,0.5]];portConstraint=eastwest;whiteSpace=wrap;html=1;fontSize=16;" vertex="1" parent="_60M-hrK0tJfBThX2oCK-29">
          <mxGeometry y="398" width="665" height="26" as="geometry" />
        </mxCell>
        <mxCell id="_60M-hrK0tJfBThX2oCK-46" value="+ is_git?" style="text;strokeColor=none;fillColor=none;align=left;verticalAlign=top;spacingLeft=4;spacingRight=4;overflow=hidden;rotatable=0;points=[[0,0.5],[1,0.5]];portConstraint=eastwest;whiteSpace=wrap;html=1;fontSize=16;" vertex="1" parent="_60M-hrK0tJfBThX2oCK-29">
          <mxGeometry y="424" width="665" height="26" as="geometry" />
        </mxCell>
        <mxCell id="_60M-hrK0tJfBThX2oCK-47" value="+ is_contacts?" style="text;strokeColor=none;fillColor=none;align=left;verticalAlign=top;spacingLeft=4;spacingRight=4;overflow=hidden;rotatable=0;points=[[0,0.5],[1,0.5]];portConstraint=eastwest;whiteSpace=wrap;html=1;fontSize=16;" vertex="1" parent="_60M-hrK0tJfBThX2oCK-29">
          <mxGeometry y="450" width="665" height="26" as="geometry" />
        </mxCell>
        <mxCell id="_60M-hrK0tJfBThX2oCK-48" value="+ to_s()" style="text;strokeColor=none;fillColor=none;align=left;verticalAlign=top;spacingLeft=4;spacingRight=4;overflow=hidden;rotatable=0;points=[[0,0.5],[1,0.5]];portConstraint=eastwest;whiteSpace=wrap;html=1;fontSize=16;" vertex="1" parent="_60M-hrK0tJfBThX2oCK-29">
          <mxGeometry y="476" width="665" height="26" as="geometry" />
        </mxCell>
        <mxCell id="_60M-hrK0tJfBThX2oCK-49" value="+ get_info()" style="text;strokeColor=none;fillColor=none;align=left;verticalAlign=top;spacingLeft=4;spacingRight=4;overflow=hidden;rotatable=0;points=[[0,0.5],[1,0.5]];portConstraint=eastwest;whiteSpace=wrap;html=1;fontSize=16;" vertex="1" parent="_60M-hrK0tJfBThX2oCK-29">
          <mxGeometry y="502" width="665" height="26" as="geometry" />
        </mxCell>
        <mxCell id="_60M-hrK0tJfBThX2oCK-50" value="+ name: attr_reader" style="text;strokeColor=none;fillColor=none;align=left;verticalAlign=top;spacingLeft=4;spacingRight=4;overflow=hidden;rotatable=0;points=[[0,0.5],[1,0.5]];portConstraint=eastwest;whiteSpace=wrap;html=1;fontSize=16;" vertex="1" parent="_60M-hrK0tJfBThX2oCK-29">
          <mxGeometry y="528" width="665" height="26" as="geometry" />
        </mxCell>
        <mxCell id="_60M-hrK0tJfBThX2oCK-51" value="+ surname: attr_reader" style="text;strokeColor=none;fillColor=none;align=left;verticalAlign=top;spacingLeft=4;spacingRight=4;overflow=hidden;rotatable=0;points=[[0,0.5],[1,0.5]];portConstraint=eastwest;whiteSpace=wrap;html=1;fontSize=16;" vertex="1" parent="_60M-hrK0tJfBThX2oCK-29">
          <mxGeometry y="554" width="665" height="26" as="geometry" />
        </mxCell>
        <mxCell id="_60M-hrK0tJfBThX2oCK-52" value="+ patronymic: attr_reader" style="text;strokeColor=none;fillColor=none;align=left;verticalAlign=top;spacingLeft=4;spacingRight=4;overflow=hidden;rotatable=0;points=[[0,0.5],[1,0.5]];portConstraint=eastwest;whiteSpace=wrap;html=1;fontSize=16;" vertex="1" parent="_60M-hrK0tJfBThX2oCK-29">
          <mxGeometry y="580" width="665" height="26" as="geometry" />
        </mxCell>
        <mxCell id="_60M-hrK0tJfBThX2oCK-53" value="+ phone_num: attr_reader" style="text;strokeColor=none;fillColor=none;align=left;verticalAlign=top;spacingLeft=4;spacingRight=4;overflow=hidden;rotatable=0;points=[[0,0.5],[1,0.5]];portConstraint=eastwest;whiteSpace=wrap;html=1;fontSize=16;" vertex="1" parent="_60M-hrK0tJfBThX2oCK-29">
          <mxGeometry y="606" width="665" height="26" as="geometry" />
        </mxCell>
        <mxCell id="_60M-hrK0tJfBThX2oCK-54" value="+ telegram: attr_reader" style="text;strokeColor=none;fillColor=none;align=left;verticalAlign=top;spacingLeft=4;spacingRight=4;overflow=hidden;rotatable=0;points=[[0,0.5],[1,0.5]];portConstraint=eastwest;whiteSpace=wrap;html=1;fontSize=16;" vertex="1" parent="_60M-hrK0tJfBThX2oCK-29">
          <mxGeometry y="632" width="665" height="26" as="geometry" />
        </mxCell>
        <mxCell id="_60M-hrK0tJfBThX2oCK-55" value="+ email: attr_reader" style="text;strokeColor=none;fillColor=none;align=left;verticalAlign=top;spacingLeft=4;spacingRight=4;overflow=hidden;rotatable=0;points=[[0,0.5],[1,0.5]];portConstraint=eastwest;whiteSpace=wrap;html=1;fontSize=16;" vertex="1" parent="_60M-hrK0tJfBThX2oCK-29">
          <mxGeometry y="658" width="665" height="26" as="geometry" />
        </mxCell>
        <mxCell id="_60M-hrK0tJfBThX2oCK-56" value="+ &amp;lt;=&amp;gt;(other)" style="text;strokeColor=none;fillColor=none;align=left;verticalAlign=top;spacingLeft=4;spacingRight=4;overflow=hidden;rotatable=0;points=[[0,0.5],[1,0.5]];portConstraint=eastwest;whiteSpace=wrap;html=1;fontSize=16;" vertex="1" parent="_60M-hrK0tJfBThX2oCK-29">
          <mxGeometry y="684" width="665" height="26" as="geometry" />
        </mxCell>
        <mxCell id="_60M-hrK0tJfBThX2oCK-57" value="" style="endArrow=block;html=1;rounded=0;exitX=0;exitY=0.5;exitDx=0;exitDy=0;entryX=1;entryY=0.5;entryDx=0;entryDy=0;endFill=0;endSize=12;" edge="1" parent="1" source="_60M-hrK0tJfBThX2oCK-38" target="_60M-hrK0tJfBThX2oCK-10">
          <mxGeometry width="50" height="50" relative="1" as="geometry">
            <mxPoint x="559" y="-991" as="sourcePoint" />
            <mxPoint x="689" y="-965" as="targetPoint" />
          </mxGeometry>
        </mxCell>
      </root>
    </mxGraphModel>
  </diagram>
</mxfile>
